<svg width="72" height="72" viewBox="0 0 72 72" fill="none" xmlns="http://www.w3.org/2000/svg">
<circle cx="36" cy="36" r="33.6" fill="#ECFEEE" stroke="white" stroke-width="3.2"/>
<g clip-path="url(#clip0_91_20658)">
<path d="M34.3309 39.6688C33.797 39.6688 33.2949 39.4607 32.9165 39.0831C29.9289 36.095 29.9289 31.2333 32.9165 28.2454L36.9207 24.2413C38.3657 22.7959 40.29 22 42.3393 22C44.3886 22 46.3129 22.7959 47.7579 24.2413C50.7455 27.2291 50.7455 32.0909 47.7579 35.0787L45.0886 37.7481C44.7109 38.126 44.2089 38.3341 43.6742 38.3342C43.1403 38.3342 42.6382 38.1261 42.2599 37.7485C41.8822 37.3706 41.6738 36.8682 41.6738 36.3338C41.6738 35.7995 41.8821 35.297 42.2599 34.9192L44.9291 32.2498C46.3571 30.8217 46.3571 28.4983 44.9291 27.0704C44.2388 26.3801 43.3187 25.9998 42.3393 25.9998C41.3599 25.9998 40.4398 26.3801 39.7495 27.0704L35.7454 31.0745C34.3173 32.5024 34.3173 34.8259 35.7454 36.2538C36.5255 37.0338 36.5255 38.3029 35.7454 39.0829C35.367 39.4608 34.8649 39.6688 34.3309 39.6688Z" fill="url(#paint0_linear_91_20658)"/>
<path d="M29.6593 50.0002C27.61 50.0002 25.6857 49.2043 24.2408 47.7589C21.2531 44.7711 21.2531 39.9093 24.2408 36.9215L26.2432 34.9192C26.6209 34.5415 27.1236 34.3334 27.6576 34.3334C28.1916 34.3334 28.6943 34.5416 29.072 34.9195C29.4496 35.2972 29.6581 35.7996 29.6581 36.3339C29.6581 36.8684 29.4497 37.3708 29.072 37.7486L27.0695 39.7507C25.6415 41.1784 25.6415 43.5019 27.0695 44.9298C27.7598 45.6201 28.6799 46.0004 29.6593 46.0004C30.6387 46.0004 31.5588 45.6203 32.2491 44.9298L36.2533 40.9257C37.6813 39.4978 37.6813 37.1743 36.2533 35.7464C35.8756 35.3686 35.6672 34.8661 35.6672 34.3318C35.6672 33.7976 35.8755 33.2951 36.2533 32.9173C36.6309 32.5395 37.1337 32.3315 37.6676 32.3315C38.2016 32.3315 38.7044 32.5394 39.082 32.9171C42.0697 35.9052 42.0697 40.7669 39.082 43.7548L35.0779 47.7589C33.6329 49.2043 31.7086 50.0002 29.6593 50.0002Z" fill="url(#paint1_linear_91_20658)"/>
</g>
<defs>
<linearGradient id="paint0_linear_91_20658" x1="40.3372" y1="22" x2="40.3372" y2="39.6688" gradientUnits="userSpaceOnUse">
<stop stop-color="#4FD18F"/>
<stop offset="1" stop-color="#40A06F"/>
</linearGradient>
<linearGradient id="paint1_linear_91_20658" x1="31.6614" y1="32.3315" x2="31.6614" y2="50.0002" gradientUnits="userSpaceOnUse">
<stop stop-color="#4FD18F"/>
<stop offset="1" stop-color="#40A06F"/>
</linearGradient>
<clipPath id="clip0_91_20658">
<rect width="28" height="28" fill="white" transform="translate(22 22)"/>
</clipPath>
</defs>
</svg>
